<mxfile host="app.diagrams.net" modified="2023-10-02T19:20:05.505Z" agent="Mozilla/5.0 (Windows NT 10.0; Win64; x64; rv:109.0) Gecko/20100101 Firefox/118.0" etag="QwMeaxPbRjefMJhz1sSU" version="22.0.0" type="device">
  <diagram name="Страница — 1" id="0Fe31fzupErIYnQnvtf8">
    <mxGraphModel dx="1430" dy="763" grid="1" gridSize="10" guides="1" tooltips="1" connect="1" arrows="1" fold="1" page="1" pageScale="1" pageWidth="1169" pageHeight="827" math="0" shadow="0">
      <root>
        <mxCell id="0" />
        <mxCell id="1" parent="0" />
        <mxCell id="GLMFBdCi1oCmCL03dTun-25" value="" style="html=1;dropTarget=0;whiteSpace=wrap;fillColor=#d5e8d4;strokeColor=#82b366;" parent="1" vertex="1">
          <mxGeometry x="317.5" y="200" width="570" height="550" as="geometry" />
        </mxCell>
        <mxCell id="GLMFBdCi1oCmCL03dTun-1" value="&lt;div&gt;Член команды&lt;br&gt;&lt;/div&gt;" style="shape=umlActor;verticalLabelPosition=bottom;verticalAlign=top;html=1;outlineConnect=0;" parent="1" vertex="1">
          <mxGeometry x="50" y="440" width="30" height="60" as="geometry" />
        </mxCell>
        <mxCell id="GLMFBdCi1oCmCL03dTun-4" value="Исполнитель" style="shape=umlActor;verticalLabelPosition=bottom;verticalAlign=top;html=1;outlineConnect=0;" parent="1" vertex="1">
          <mxGeometry x="210" y="290" width="30" height="60" as="geometry" />
        </mxCell>
        <mxCell id="GLMFBdCi1oCmCL03dTun-5" value="&lt;div&gt;Менеджер&lt;/div&gt;&lt;div&gt;проекта&lt;/div&gt;" style="shape=umlActor;verticalLabelPosition=bottom;verticalAlign=top;html=1;outlineConnect=0;" parent="1" vertex="1">
          <mxGeometry x="200" y="580" width="30" height="60" as="geometry" />
        </mxCell>
        <mxCell id="GLMFBdCi1oCmCL03dTun-8" value="" style="endArrow=none;html=1;rounded=0;endFill=0;startArrow=block;startFill=0;" parent="1" target="GLMFBdCi1oCmCL03dTun-5" edge="1">
          <mxGeometry width="50" height="50" relative="1" as="geometry">
            <mxPoint x="65" y="530" as="sourcePoint" />
            <mxPoint x="270" y="613" as="targetPoint" />
            <Array as="points">
              <mxPoint x="65" y="610" />
            </Array>
          </mxGeometry>
        </mxCell>
        <mxCell id="GLMFBdCi1oCmCL03dTun-9" value="" style="endArrow=none;html=1;rounded=0;endFill=0;startArrow=block;startFill=0;" parent="1" target="GLMFBdCi1oCmCL03dTun-4" edge="1">
          <mxGeometry width="50" height="50" relative="1" as="geometry">
            <mxPoint x="65" y="430" as="sourcePoint" />
            <mxPoint x="280" y="563" as="targetPoint" />
            <Array as="points">
              <mxPoint x="65" y="320" />
            </Array>
          </mxGeometry>
        </mxCell>
        <mxCell id="GLMFBdCi1oCmCL03dTun-11" value="Управлять задачами" style="ellipse;whiteSpace=wrap;html=1;fillColor=#ffe6cc;strokeColor=#d79b00;" parent="1" vertex="1">
          <mxGeometry x="342.19" y="527.5" width="190" height="50" as="geometry" />
        </mxCell>
        <mxCell id="GLMFBdCi1oCmCL03dTun-13" value="&lt;div&gt;Получить информацию о проекте&lt;/div&gt;" style="ellipse;whiteSpace=wrap;html=1;fillColor=#ffe6cc;strokeColor=#d79b00;" parent="1" vertex="1">
          <mxGeometry x="507.5" y="440" width="180" height="60" as="geometry" />
        </mxCell>
        <mxCell id="GLMFBdCi1oCmCL03dTun-16" value="" style="endArrow=none;html=1;rounded=0;entryX=0;entryY=0.5;entryDx=0;entryDy=0;" parent="1" source="GLMFBdCi1oCmCL03dTun-5" target="GLMFBdCi1oCmCL03dTun-11" edge="1">
          <mxGeometry width="50" height="50" relative="1" as="geometry">
            <mxPoint x="280" y="590" as="sourcePoint" />
            <mxPoint x="520" y="410" as="targetPoint" />
          </mxGeometry>
        </mxCell>
        <mxCell id="GLMFBdCi1oCmCL03dTun-18" value="" style="endArrow=none;html=1;rounded=0;entryX=0;entryY=0.5;entryDx=0;entryDy=0;" parent="1" source="GLMFBdCi1oCmCL03dTun-1" target="GLMFBdCi1oCmCL03dTun-13" edge="1">
          <mxGeometry width="50" height="50" relative="1" as="geometry">
            <mxPoint x="470" y="460" as="sourcePoint" />
            <mxPoint x="520" y="410" as="targetPoint" />
          </mxGeometry>
        </mxCell>
        <mxCell id="GLMFBdCi1oCmCL03dTun-23" value="Варианты использования" style="shape=umlFrame;whiteSpace=wrap;html=1;pointerEvents=0;width=210;height=20;" parent="1" vertex="1">
          <mxGeometry x="10" y="180" width="1040" height="620" as="geometry" />
        </mxCell>
        <mxCell id="GLMFBdCi1oCmCL03dTun-27" value="&lt;div&gt;Управление командой&amp;nbsp;&lt;/div&gt;&lt;div&gt;проекта&lt;/div&gt;" style="ellipse;whiteSpace=wrap;html=1;fillColor=#ffe6cc;strokeColor=#d79b00;" parent="1" vertex="1">
          <mxGeometry x="344.06" y="600" width="186.25" height="50" as="geometry" />
        </mxCell>
        <mxCell id="GLMFBdCi1oCmCL03dTun-28" value="" style="endArrow=none;html=1;rounded=0;entryX=0;entryY=0.5;entryDx=0;entryDy=0;" parent="1" source="GLMFBdCi1oCmCL03dTun-5" target="GLMFBdCi1oCmCL03dTun-27" edge="1">
          <mxGeometry width="50" height="50" relative="1" as="geometry">
            <mxPoint x="470" y="490" as="sourcePoint" />
            <mxPoint x="520" y="440" as="targetPoint" />
          </mxGeometry>
        </mxCell>
        <mxCell id="GLMFBdCi1oCmCL03dTun-29" value="Управлять пользователями" style="ellipse;whiteSpace=wrap;html=1;fillColor=#ffe6cc;strokeColor=#d79b00;" parent="1" vertex="1">
          <mxGeometry x="710" y="360" width="155" height="50" as="geometry" />
        </mxCell>
        <mxCell id="GLMFBdCi1oCmCL03dTun-30" value="" style="endArrow=none;html=1;rounded=0;exitX=1;exitY=0.5;exitDx=0;exitDy=0;" parent="1" source="GLMFBdCi1oCmCL03dTun-29" target="GLMFBdCi1oCmCL03dTun-49" edge="1">
          <mxGeometry width="50" height="50" relative="1" as="geometry">
            <mxPoint x="470" y="490" as="sourcePoint" />
            <mxPoint x="520" y="440" as="targetPoint" />
          </mxGeometry>
        </mxCell>
        <mxCell id="GLMFBdCi1oCmCL03dTun-32" value="" style="endArrow=none;html=1;rounded=0;entryX=1;entryY=0.5;entryDx=0;entryDy=0;" parent="1" source="GLMFBdCi1oCmCL03dTun-49" target="DlbZdIHzd7oVlVPWz-om-2" edge="1">
          <mxGeometry width="50" height="50" relative="1" as="geometry">
            <mxPoint x="470" y="490" as="sourcePoint" />
            <mxPoint x="870" y="705" as="targetPoint" />
          </mxGeometry>
        </mxCell>
        <mxCell id="GLMFBdCi1oCmCL03dTun-33" value="Получить задачу" style="ellipse;whiteSpace=wrap;html=1;fillColor=#ffe6cc;strokeColor=#d79b00;" parent="1" vertex="1">
          <mxGeometry x="339.84" y="398" width="182.5" height="30" as="geometry" />
        </mxCell>
        <mxCell id="GLMFBdCi1oCmCL03dTun-34" value="" style="endArrow=none;html=1;rounded=0;entryX=0;entryY=0.5;entryDx=0;entryDy=0;exitX=1;exitY=0.3333333333333333;exitDx=0;exitDy=0;exitPerimeter=0;" parent="1" source="GLMFBdCi1oCmCL03dTun-1" target="GLMFBdCi1oCmCL03dTun-33" edge="1">
          <mxGeometry width="50" height="50" relative="1" as="geometry">
            <mxPoint x="470" y="490" as="sourcePoint" />
            <mxPoint x="520" y="440" as="targetPoint" />
          </mxGeometry>
        </mxCell>
        <mxCell id="GLMFBdCi1oCmCL03dTun-43" value="&lt;div&gt;Изменить статус&amp;nbsp;&lt;/div&gt;&lt;div&gt;своей задачи&lt;/div&gt;" style="ellipse;whiteSpace=wrap;html=1;fillColor=#ffe6cc;strokeColor=#d79b00;" parent="1" vertex="1">
          <mxGeometry x="337.19" y="327" width="187.81" height="40" as="geometry" />
        </mxCell>
        <mxCell id="GLMFBdCi1oCmCL03dTun-44" value="" style="endArrow=none;html=1;rounded=0;entryX=0;entryY=0.5;entryDx=0;entryDy=0;" parent="1" source="GLMFBdCi1oCmCL03dTun-4" target="GLMFBdCi1oCmCL03dTun-43" edge="1">
          <mxGeometry width="50" height="50" relative="1" as="geometry">
            <mxPoint x="600" y="480" as="sourcePoint" />
            <mxPoint x="650" y="430" as="targetPoint" />
          </mxGeometry>
        </mxCell>
        <mxCell id="GLMFBdCi1oCmCL03dTun-48" value="&lt;u&gt;&lt;b&gt;ThunderBoard&lt;br&gt;&lt;/b&gt;&lt;/u&gt;" style="text;html=1;strokeColor=none;fillColor=none;align=center;verticalAlign=middle;whiteSpace=wrap;rounded=0;" parent="1" vertex="1">
          <mxGeometry x="572.5" y="210" width="60" height="30" as="geometry" />
        </mxCell>
        <mxCell id="GLMFBdCi1oCmCL03dTun-49" value="&lt;div&gt;Администратор&lt;/div&gt;" style="shape=umlActor;verticalLabelPosition=bottom;verticalAlign=top;html=1;outlineConnect=0;" parent="1" vertex="1">
          <mxGeometry x="970" y="440" width="30" height="60" as="geometry" />
        </mxCell>
        <mxCell id="GLMFBdCi1oCmCL03dTun-60" value="Управлять своими проектами" style="ellipse;whiteSpace=wrap;html=1;fillColor=#ffe6cc;strokeColor=#d79b00;" parent="1" vertex="1">
          <mxGeometry x="357.19" y="680" width="167.81" height="50" as="geometry" />
        </mxCell>
        <mxCell id="GLMFBdCi1oCmCL03dTun-61" value="" style="endArrow=none;html=1;rounded=0;entryX=0;entryY=0.5;entryDx=0;entryDy=0;" parent="1" source="GLMFBdCi1oCmCL03dTun-5" target="GLMFBdCi1oCmCL03dTun-60" edge="1">
          <mxGeometry width="50" height="50" relative="1" as="geometry">
            <mxPoint x="540" y="570" as="sourcePoint" />
            <mxPoint x="590" y="520" as="targetPoint" />
          </mxGeometry>
        </mxCell>
        <mxCell id="GLMFBdCi1oCmCL03dTun-64" value="" style="endArrow=none;html=1;rounded=0;exitX=1;exitY=0.5;exitDx=0;exitDy=0;" parent="1" source="GLMFBdCi1oCmCL03dTun-13" target="GLMFBdCi1oCmCL03dTun-49" edge="1">
          <mxGeometry width="50" height="50" relative="1" as="geometry">
            <mxPoint x="540" y="620" as="sourcePoint" />
            <mxPoint x="590" y="570" as="targetPoint" />
          </mxGeometry>
        </mxCell>
        <mxCell id="GLMFBdCi1oCmCL03dTun-73" value="&lt;div&gt;Изменить исполнителя&amp;nbsp;&lt;/div&gt;&lt;div&gt;своей задачи&lt;/div&gt;" style="ellipse;whiteSpace=wrap;html=1;fillColor=#ffe6cc;strokeColor=#d79b00;" parent="1" vertex="1">
          <mxGeometry x="342.19" y="260" width="177.81" height="40" as="geometry" />
        </mxCell>
        <mxCell id="GLMFBdCi1oCmCL03dTun-74" value="" style="endArrow=none;html=1;rounded=0;entryX=0;entryY=0.5;entryDx=0;entryDy=0;" parent="1" source="GLMFBdCi1oCmCL03dTun-4" target="GLMFBdCi1oCmCL03dTun-73" edge="1">
          <mxGeometry width="50" height="50" relative="1" as="geometry">
            <mxPoint x="540" y="520" as="sourcePoint" />
            <mxPoint x="590" y="470" as="targetPoint" />
          </mxGeometry>
        </mxCell>
        <mxCell id="DlbZdIHzd7oVlVPWz-om-2" value="Управлять проектами" style="ellipse;whiteSpace=wrap;html=1;fillColor=#ffe6cc;strokeColor=#d79b00;" vertex="1" parent="1">
          <mxGeometry x="710" y="550" width="150" height="40" as="geometry" />
        </mxCell>
      </root>
    </mxGraphModel>
  </diagram>
</mxfile>
